<mxfile host="app.diagrams.net" modified="2022-01-24T07:18:21.352Z" agent="5.0 (Macintosh; Intel Mac OS X 10_15_7) AppleWebKit/537.36 (KHTML, like Gecko) Chrome/96.0.4664.110 Safari/537.36" etag="dgku4h1VYsUKgH4gRXd9" version="16.4.5" type="github">
  <diagram id="C5RBs43oDa-KdzZeNtuy" name="Page-1">
    <mxGraphModel dx="1426" dy="769" grid="1" gridSize="10" guides="1" tooltips="1" connect="1" arrows="1" fold="1" page="1" pageScale="1" pageWidth="827" pageHeight="1169" math="0" shadow="0">
      <root>
        <mxCell id="WIyWlLk6GJQsqaUBKTNV-0" />
        <mxCell id="WIyWlLk6GJQsqaUBKTNV-1" parent="WIyWlLk6GJQsqaUBKTNV-0" />
        <mxCell id="q8d5V3itDqxCBHE6NXQo-4" value="&lt;b style=&quot;background-color: rgb(255 , 255 , 102)&quot;&gt;&lt;font style=&quot;font-size: 14px&quot;&gt;Kusama Chain&lt;/font&gt;&lt;/b&gt;" style="ellipse;whiteSpace=wrap;html=1;" parent="WIyWlLk6GJQsqaUBKTNV-1" vertex="1">
          <mxGeometry x="120" y="180" width="475" height="270" as="geometry" />
        </mxCell>
        <mxCell id="q8d5V3itDqxCBHE6NXQo-5" value="&lt;span style=&quot;background-color: rgb(255 , 255 , 0)&quot;&gt;&lt;b&gt;&lt;font style=&quot;font-size: 14px&quot;&gt;Bifrost Chain&lt;/font&gt;&lt;/b&gt;&lt;/span&gt;" style="ellipse;whiteSpace=wrap;html=1;" parent="WIyWlLk6GJQsqaUBKTNV-1" vertex="1">
          <mxGeometry x="120" y="450" width="475" height="270" as="geometry" />
        </mxCell>
        <mxCell id="q8d5V3itDqxCBHE6NXQo-6" value="Bifrost parachain account" style="whiteSpace=wrap;html=1;aspect=fixed;fillColor=#f8cecc;strokeColor=#b85450;" parent="WIyWlLk6GJQsqaUBKTNV-1" vertex="1">
          <mxGeometry x="318" y="420" width="80" height="80" as="geometry" />
        </mxCell>
        <mxCell id="q8d5V3itDqxCBHE6NXQo-7" value="nominator 1" style="rhombus;whiteSpace=wrap;html=1;fillColor=#fff2cc;strokeColor=#d6b656;" parent="WIyWlLk6GJQsqaUBKTNV-1" vertex="1">
          <mxGeometry x="550" y="280" width="80" height="80" as="geometry" />
        </mxCell>
        <mxCell id="q8d5V3itDqxCBHE6NXQo-8" value="nominator 2" style="rhombus;whiteSpace=wrap;html=1;fillColor=#fff2cc;strokeColor=#d6b656;" parent="WIyWlLk6GJQsqaUBKTNV-1" vertex="1">
          <mxGeometry x="90" y="230" width="80" height="80" as="geometry" />
        </mxCell>
        <mxCell id="q8d5V3itDqxCBHE6NXQo-9" value="user account" style="ellipse;whiteSpace=wrap;html=1;aspect=fixed;fillColor=#d5e8d4;strokeColor=#82b366;" parent="WIyWlLk6GJQsqaUBKTNV-1" vertex="1">
          <mxGeometry x="318" y="680" width="80" height="80" as="geometry" />
        </mxCell>
        <mxCell id="q8d5V3itDqxCBHE6NXQo-10" value="Banker-in account" style="shape=cylinder3;whiteSpace=wrap;html=1;boundedLbl=1;backgroundOutline=1;size=15;fillColor=#dae8fc;strokeColor=#6c8ebf;" parent="WIyWlLk6GJQsqaUBKTNV-1" vertex="1">
          <mxGeometry x="70" y="570" width="90" height="70" as="geometry" />
        </mxCell>
        <mxCell id="q8d5V3itDqxCBHE6NXQo-11" value="Currencies Module" style="ellipse;shape=cloud;whiteSpace=wrap;html=1;fillColor=#e1d5e7;strokeColor=#9673a6;" parent="WIyWlLk6GJQsqaUBKTNV-1" vertex="1">
          <mxGeometry x="420" y="545" width="160" height="80" as="geometry" />
        </mxCell>
        <mxCell id="q8d5V3itDqxCBHE6NXQo-12" value="Treasury" style="ellipse;shape=cloud;whiteSpace=wrap;html=1;fillColor=#e1d5e7;strokeColor=#9673a6;" parent="WIyWlLk6GJQsqaUBKTNV-1" vertex="1">
          <mxGeometry x="339" y="190" width="150" height="80" as="geometry" />
        </mxCell>
        <mxCell id="q8d5V3itDqxCBHE6NXQo-24" value="&lt;b&gt;1. VKSM (destroy)&lt;/b&gt;" style="curved=1;endArrow=classic;html=1;rounded=0;fontSize=11;fontColor=#CC0000;strokeColor=#CC0000;entryX=0.6;entryY=0.925;entryDx=0;entryDy=0;entryPerimeter=0;exitX=1;exitY=0;exitDx=0;exitDy=0;" parent="WIyWlLk6GJQsqaUBKTNV-1" source="q8d5V3itDqxCBHE6NXQo-9" target="q8d5V3itDqxCBHE6NXQo-11" edge="1">
          <mxGeometry width="50" height="50" relative="1" as="geometry">
            <mxPoint x="190" y="770" as="sourcePoint" />
            <mxPoint x="240" y="720" as="targetPoint" />
            <Array as="points">
              <mxPoint x="470" y="660" />
            </Array>
          </mxGeometry>
        </mxCell>
        <mxCell id="q8d5V3itDqxCBHE6NXQo-32" value="&lt;font color=&quot;#cc0000&quot; size=&quot;1&quot;&gt;&lt;b style=&quot;font-size: 11px&quot;&gt;3-1. KSM (transfer, cross-chain transfer part-1)&lt;/b&gt;&lt;/font&gt;" style="endArrow=classic;html=1;rounded=0;fontSize=14;fontColor=#FFFF66;strokeColor=#CC0000;exitX=0;exitY=1;exitDx=0;exitDy=0;entryX=0.5;entryY=0;entryDx=0;entryDy=0;" parent="WIyWlLk6GJQsqaUBKTNV-1" source="q8d5V3itDqxCBHE6NXQo-7" target="q8d5V3itDqxCBHE6NXQo-6" edge="1">
          <mxGeometry width="50" height="50" relative="1" as="geometry">
            <mxPoint x="360" y="420" as="sourcePoint" />
            <mxPoint x="620" y="450" as="targetPoint" />
          </mxGeometry>
        </mxCell>
        <mxCell id="q8d5V3itDqxCBHE6NXQo-34" value="" style="curved=1;endArrow=classic;html=1;rounded=0;fontSize=11;fontColor=#CC0000;strokeColor=#CC0000;exitX=0.5;exitY=1;exitDx=0;exitDy=0;" parent="WIyWlLk6GJQsqaUBKTNV-1" source="q8d5V3itDqxCBHE6NXQo-7" target="q8d5V3itDqxCBHE6NXQo-7" edge="1">
          <mxGeometry width="50" height="50" relative="1" as="geometry">
            <mxPoint x="650" y="410" as="sourcePoint" />
            <mxPoint x="700" y="360" as="targetPoint" />
            <Array as="points">
              <mxPoint x="630" y="380" />
              <mxPoint x="650" y="360" />
            </Array>
          </mxGeometry>
        </mxCell>
        <mxCell id="q8d5V3itDqxCBHE6NXQo-35" value="&lt;b&gt;2. KSM (unbond)&lt;/b&gt;" style="edgeLabel;html=1;align=center;verticalAlign=middle;resizable=0;points=[];fontSize=11;fontColor=#CC0000;" parent="q8d5V3itDqxCBHE6NXQo-34" vertex="1" connectable="0">
          <mxGeometry x="-0.036" y="-1" relative="1" as="geometry">
            <mxPoint as="offset" />
          </mxGeometry>
        </mxCell>
        <mxCell id="q8d5V3itDqxCBHE6NXQo-39" value="nominator n" style="rhombus;whiteSpace=wrap;html=1;fillColor=#fff2cc;strokeColor=#d6b656;" parent="WIyWlLk6GJQsqaUBKTNV-1" vertex="1">
          <mxGeometry x="90" y="340" width="80" height="80" as="geometry" />
        </mxCell>
        <mxCell id="q8d5V3itDqxCBHE6NXQo-40" value="" style="endArrow=none;dashed=1;html=1;dashPattern=1 3;strokeWidth=2;rounded=0;fontSize=11;fontColor=#CC0000;entryX=0.5;entryY=1;entryDx=0;entryDy=0;" parent="WIyWlLk6GJQsqaUBKTNV-1" source="q8d5V3itDqxCBHE6NXQo-39" target="q8d5V3itDqxCBHE6NXQo-8" edge="1">
          <mxGeometry width="50" height="50" relative="1" as="geometry">
            <mxPoint x="100" y="330" as="sourcePoint" />
            <mxPoint x="150" y="280" as="targetPoint" />
          </mxGeometry>
        </mxCell>
        <mxCell id="q8d5V3itDqxCBHE6NXQo-41" value="Asset flows while a user redeems in Bifrost" style="text;html=1;align=center;verticalAlign=middle;resizable=0;points=[];autosize=1;strokeColor=none;fillColor=none;fontSize=17;fontColor=#000000;fontStyle=1" parent="WIyWlLk6GJQsqaUBKTNV-1" vertex="1">
          <mxGeometry x="165" y="135" width="370" height="30" as="geometry" />
        </mxCell>
        <mxCell id="uIAUuIYugJIO48tQ6j55-0" value="" style="endArrow=classic;html=1;rounded=0;entryX=0.5;entryY=0;entryDx=0;entryDy=0;entryPerimeter=0;fillColor=#a20025;strokeColor=#FF0000;exitX=0.875;exitY=0.5;exitDx=0;exitDy=0;exitPerimeter=0;" parent="WIyWlLk6GJQsqaUBKTNV-1" edge="1">
          <mxGeometry width="50" height="50" relative="1" as="geometry">
            <mxPoint x="565" y="585" as="sourcePoint" />
            <mxPoint x="595" y="640" as="targetPoint" />
            <Array as="points">
              <mxPoint x="635" y="590" />
              <mxPoint x="635" y="630" />
            </Array>
          </mxGeometry>
        </mxCell>
        <mxCell id="uIAUuIYugJIO48tQ6j55-1" value="&lt;b style=&quot;color: rgb(204 , 0 , 0)&quot;&gt;3-2. Bifrost KSM &lt;br&gt;(mint, cross-chain transfer part-2)&lt;/b&gt;" style="edgeLabel;html=1;align=center;verticalAlign=middle;resizable=0;points=[];" parent="uIAUuIYugJIO48tQ6j55-0" vertex="1" connectable="0">
          <mxGeometry x="0.0799" y="-2" relative="1" as="geometry">
            <mxPoint x="57" y="8" as="offset" />
          </mxGeometry>
        </mxCell>
        <mxCell id="b9ymjmKl1Xsozi4GXaGQ-0" value="Banker-out account" style="shape=cylinder3;whiteSpace=wrap;html=1;boundedLbl=1;backgroundOutline=1;size=15;fillColor=#dae8fc;strokeColor=#6c8ebf;" parent="WIyWlLk6GJQsqaUBKTNV-1" vertex="1">
          <mxGeometry x="545" y="640" width="90" height="70" as="geometry" />
        </mxCell>
        <mxCell id="b9ymjmKl1Xsozi4GXaGQ-1" value="" style="endArrow=classic;html=1;rounded=0;exitX=0.5;exitY=1;exitDx=0;exitDy=0;exitPerimeter=0;entryX=0;entryY=1;entryDx=0;entryDy=0;strokeColor=#3399FF;dashed=1;" parent="WIyWlLk6GJQsqaUBKTNV-1" source="q8d5V3itDqxCBHE6NXQo-10" target="q8d5V3itDqxCBHE6NXQo-9" edge="1">
          <mxGeometry width="50" height="50" relative="1" as="geometry">
            <mxPoint x="70" y="730" as="sourcePoint" />
            <mxPoint x="120" y="680" as="targetPoint" />
            <Array as="points">
              <mxPoint x="210" y="730" />
            </Array>
          </mxGeometry>
        </mxCell>
        <mxCell id="b9ymjmKl1Xsozi4GXaGQ-2" value="&lt;font color=&quot;#3399ff&quot;&gt;2. Bifrost KSM (fast redeem)&lt;br&gt;&lt;/font&gt;" style="edgeLabel;html=1;align=center;verticalAlign=middle;resizable=0;points=[];fontStyle=1" parent="b9ymjmKl1Xsozi4GXaGQ-1" vertex="1" connectable="0">
          <mxGeometry x="-0.1966" y="2" relative="1" as="geometry">
            <mxPoint as="offset" />
          </mxGeometry>
        </mxCell>
        <mxCell id="b9ymjmKl1Xsozi4GXaGQ-3" value="" style="endArrow=classic;html=1;rounded=0;dashed=1;fontColor=#3399FF;strokeColor=#FF0000;exitX=0.5;exitY=1;exitDx=0;exitDy=0;exitPerimeter=0;entryX=1;entryY=1;entryDx=0;entryDy=0;" parent="WIyWlLk6GJQsqaUBKTNV-1" source="b9ymjmKl1Xsozi4GXaGQ-0" target="q8d5V3itDqxCBHE6NXQo-9" edge="1">
          <mxGeometry width="50" height="50" relative="1" as="geometry">
            <mxPoint x="500" y="790" as="sourcePoint" />
            <mxPoint x="550" y="740" as="targetPoint" />
          </mxGeometry>
        </mxCell>
        <mxCell id="b9ymjmKl1Xsozi4GXaGQ-4" value="&lt;font color=&quot;#ff0000&quot;&gt;4. Bifrost KSM(due era refund)&lt;/font&gt;" style="edgeLabel;html=1;align=center;verticalAlign=middle;resizable=0;points=[];fontColor=#3399FF;" parent="b9ymjmKl1Xsozi4GXaGQ-3" vertex="1" connectable="0">
          <mxGeometry x="0.109" relative="1" as="geometry">
            <mxPoint as="offset" />
          </mxGeometry>
        </mxCell>
        <mxCell id="b9ymjmKl1Xsozi4GXaGQ-5" value="" style="endArrow=classic;html=1;rounded=0;dashed=1;fontColor=#FF0000;strokeColor=#3399FF;entryX=1;entryY=0.5;entryDx=0;entryDy=0;entryPerimeter=0;exitX=0.895;exitY=0.811;exitDx=0;exitDy=0;exitPerimeter=0;" parent="WIyWlLk6GJQsqaUBKTNV-1" source="q8d5V3itDqxCBHE6NXQo-5" target="q8d5V3itDqxCBHE6NXQo-10" edge="1">
          <mxGeometry width="50" height="50" relative="1" as="geometry">
            <mxPoint x="60" y="520" as="sourcePoint" />
            <mxPoint x="110" y="470" as="targetPoint" />
          </mxGeometry>
        </mxCell>
        <mxCell id="b9ymjmKl1Xsozi4GXaGQ-6" value="&lt;font color=&quot;#3399ff&quot;&gt;Bifrost KSM(transfer, after refund current era unbond users)&lt;/font&gt;" style="edgeLabel;html=1;align=center;verticalAlign=middle;resizable=0;points=[];fontColor=#FF0000;fontStyle=1" parent="b9ymjmKl1Xsozi4GXaGQ-5" vertex="1" connectable="0">
          <mxGeometry x="0.2589" y="-2" relative="1" as="geometry">
            <mxPoint x="27" y="3" as="offset" />
          </mxGeometry>
        </mxCell>
      </root>
    </mxGraphModel>
  </diagram>
</mxfile>
